<?xml version="1.0" standalone="no"?>
<!DOCTYPE svg PUBLIC "-//W3C//DTD SVG 20010904//EN"
 "http://www.w3.org/TR/2001/REC-SVG-20010904/DTD/svg10.dtd">
<svg version="1.0" xmlns="http://www.w3.org/2000/svg"
 width="791.000000pt" height="570.000000pt" viewBox="0 0 791.000000 570.000000"
 preserveAspectRatio="xMidYMid meet">
<metadata>
Created by potrace 1.16, written by Peter Selinger 2001-2019
</metadata>
<g transform="translate(0.000000,570.000000) scale(0.100000,-0.100000)"
fill="red" stroke="white">
<path d="M5515 5688 c-29 -17 -53 -49 -59 -81 -6 -29 0 -48 58 -188 38 -92 55
-202 42 -274 -10 -51 -88 -127 -168 -165 -70 -33 -105 -37 -148 -15 -23 12
-31 25 -40 71 -30 145 -89 271 -198 423 -118 166 -164 201 -235 180 -67 -19
-100 -84 -78 -151 6 -18 45 -78 86 -133 111 -149 195 -326 195 -411 0 -29 -27
-31 -109 -9 -128 34 -221 102 -319 234 -64 87 -86 107 -126 115 -34 7 -89 -17
-109 -47 -38 -59 -29 -114 38 -218 106 -164 277 -285 475 -335 119 -30 316
-26 500 10 195 38 336 34 481 -13 127 -41 195 -87 309 -210 l95 -102 105 -19
c58 -10 124 -26 148 -34 23 -8 117 -65 209 -126 91 -61 206 -130 255 -153 48
-23 88 -45 88 -48 0 -15 -48 -75 -69 -85 -13 -7 -80 -15 -150 -18 -384 -19
-627 -120 -799 -331 -57 -69 -192 -260 -285 -402 -103 -156 -107 -160 -213
-168 -140 -11 -204 -53 -204 -135 0 -94 87 -142 217 -121 104 17 557 61 627
61 49 0 70 -5 96 -22 56 -38 59 -53 23 -89 l-31 -32 -34 26 c-76 59 -142 69
-252 41 -59 -15 -274 -78 -555 -163 -98 -30 -152 -41 -200 -41 l-66 0 -95 98
c-52 54 -139 160 -193 234 -105 146 -141 176 -198 164 -70 -14 -116 -78 -104
-144 7 -40 109 -191 225 -336 39 -48 70 -89 70 -91 0 -3 -49 -5 -108 -5 -322
0 -712 96 -1119 276 -96 42 -103 44 -145 34 -56 -15 -71 -28 -145 -130 -33
-47 -85 -108 -115 -136 -116 -110 -187 -128 -653 -159 -266 -19 -335 -27 -615
-74 -30 -5 -56 -8 -58 -7 -1 2 37 20 85 42 173 77 301 174 405 309 86 110 112
162 173 335 72 206 116 280 232 391 231 223 507 296 1120 299 345 1 673 31
1158 106 454 70 622 120 802 241 138 93 165 149 111 230 -27 41 -45 52 -157
94 -64 24 -163 100 -149 115 23 23 197 -45 259 -101 56 -51 96 -68 141 -62 46
6 75 29 94 74 42 98 -104 243 -311 309 -154 49 -364 70 -419 43 -74 -36 -86
-101 -46 -246 29 -110 82 -196 156 -256 32 -26 59 -50 59 -53 0 -31 -423 -122
-780 -168 -396 -51 -505 -59 -1055 -76 -346 -11 -418 -19 -628 -70 -127 -31
-136 -31 -230 -21 -182 20 -286 66 -362 162 -52 66 -62 86 -94 185 -31 94 -62
130 -121 139 -49 7 -100 -17 -133 -65 -31 -46 -71 -179 -84 -277 -17 -135 20
-284 104 -408 39 -59 64 -85 124 -125 42 -27 82 -50 90 -50 16 0 19 -31 5 -45
-21 -22 -80 -156 -111 -250 -63 -192 -134 -300 -266 -405 -117 -93 -241 -146
-569 -245 -100 -30 -205 -79 -262 -122 -21 -15 -110 -87 -198 -159 -267 -218
-432 -336 -670 -478 -191 -115 -193 -117 -211 -162 -22 -57 -6 -114 42 -150
70 -54 113 -38 417 158 235 152 381 260 677 503 123 101 172 128 299 167 94
28 124 31 79 7 -37 -19 -133 -95 -273 -214 -271 -231 -382 -310 -550 -390 -74
-35 -118 -63 -130 -81 -57 -87 3 -207 104 -207 30 0 74 17 171 67 194 98 272
154 550 391 221 189 253 212 324 234 157 48 387 82 765 112 415 33 560 66 693
161 71 51 150 132 193 196 15 23 29 42 32 42 2 0 52 -20 111 -44 436 -179 858
-262 1211 -236 190 14 323 40 569 111 57 17 109 28 115 26 12 -4 -92 -71 -178
-115 -134 -67 -238 -85 -630 -106 -262 -14 -278 -18 -313 -86 -35 -69 -14
-133 56 -166 31 -15 56 -16 196 -10 327 14 554 41 675 82 152 51 302 141 473
283 30 26 6 -3 -57 -68 -118 -121 -201 -189 -278 -227 -52 -27 -336 -125 -487
-169 -128 -37 -173 -64 -194 -116 -22 -54 -13 -91 29 -134 53 -52 71 -52 256
5 415 130 504 165 632 252 75 50 314 288 533 529 249 274 297 345 297 444 0
150 -124 287 -295 325 -44 10 -82 10 -179 1 -67 -6 -123 -10 -125 -8 -2 2 44
73 102 158 241 351 359 415 825 448 146 10 208 32 281 100 113 103 153 297 84
401 -23 36 -45 50 -139 94 -62 29 -191 105 -287 169 -192 127 -241 150 -374
177 -85 17 -92 20 -125 62 -112 137 -265 232 -470 291 l-83 24 93 70 c210 158
305 256 324 335 11 43 -25 111 -70 132 -63 30 -95 17 -201 -86 l-93 -90 -11
44 c-39 155 -109 297 -160 323 -34 18 -87 19 -115 3z m122 -40 c36 -33 92
-159 118 -264 14 -55 27 -103 29 -109 1 -5 53 38 113 98 98 94 115 107 146
107 67 0 107 -59 92 -132 -10 -45 -155 -185 -317 -306 -71 -52 -128 -98 -128
-102 0 -3 33 -12 73 -19 199 -34 411 -159 533 -313 27 -36 35 -39 117 -53 128
-22 190 -51 386 -182 99 -66 214 -134 266 -156 50 -22 106 -55 125 -73 l35
-34 0 -98 c0 -90 -3 -103 -33 -164 -66 -134 -170 -182 -401 -187 -152 -4 -337
-48 -459 -110 -82 -42 -182 -151 -321 -351 -73 -105 -131 -194 -128 -197 4 -3
66 0 140 7 74 7 157 11 184 8 107 -10 227 -92 269 -183 48 -102 41 -172 -25
-272 -56 -83 -342 -397 -555 -608 -244 -242 -299 -274 -676 -390 -102 -31
-211 -66 -242 -76 -82 -27 -104 -25 -145 16 -32 32 -35 39 -30 78 6 48 49 92
101 103 70 15 525 168 577 195 90 45 193 135 392 342 208 216 231 242 222 257
-12 19 -26 10 -128 -87 -285 -270 -353 -322 -525 -404 -170 -81 -347 -109
-797 -126 l-173 -6 -31 31 c-34 34 -39 64 -17 116 19 45 48 53 231 61 205 8
454 32 534 50 89 21 224 88 351 175 58 39 117 79 132 88 16 10 28 20 28 23 0
4 -64 -14 -142 -38 -204 -64 -425 -119 -558 -139 -150 -22 -452 -22 -600 1
-239 36 -541 122 -774 220 -59 25 -113 45 -119 45 -7 0 -25 -23 -42 -51 -48
-81 -180 -201 -266 -242 -128 -62 -213 -77 -599 -107 -394 -31 -738 -88 -835
-138 -38 -19 -81 -53 -285 -227 -279 -239 -365 -298 -579 -402 -77 -37 -99
-44 -128 -38 -51 9 -83 48 -83 100 0 58 24 85 112 125 171 78 318 180 586 408
239 204 270 224 418 266 165 47 393 79 714 101 564 39 634 66 814 323 85 121
123 135 236 81 97 -46 242 -103 381 -149 208 -68 347 -100 549 -125 120 -15
380 -21 380 -9 0 3 -36 48 -79 100 -43 52 -118 149 -165 215 -76 107 -86 126
-86 164 0 36 5 48 31 69 20 17 42 26 66 26 44 0 65 -21 203 -209 124 -169 231
-277 285 -287 54 -10 126 2 250 40 593 180 636 191 698 175 53 -13 117 -62
117 -90 0 -10 4 -19 8 -19 12 0 102 110 102 125 0 26 -51 74 -95 91 -55 20
-125 17 -510 -27 -324 -36 -317 -36 -357 0 -28 25 -33 36 -32 71 1 31 8 49 27
68 23 23 39 27 143 37 139 14 108 -14 301 270 239 353 323 442 490 522 138 66
254 92 473 107 208 14 223 19 265 91 34 57 32 71 -12 85 -64 20 -181 87 -343
196 -172 114 -202 128 -339 150 -113 18 -122 22 -160 77 -16 23 -60 72 -98
108 -119 112 -283 176 -478 186 -95 5 -130 1 -255 -23 -179 -36 -410 -40 -520
-11 -90 24 -214 87 -286 146 -110 89 -214 240 -214 308 0 44 46 93 87 93 41 0
64 -20 126 -108 112 -159 236 -234 445 -267 l43 -7 -6 39 c-27 160 -88 292
-206 450 -80 105 -102 154 -88 191 14 36 50 61 88 62 43 0 95 -51 191 -188
104 -147 156 -267 194 -444 7 -32 68 -68 113 -68 36 0 142 50 193 91 119 96
130 239 35 454 -50 112 -54 141 -25 178 33 42 95 44 137 5z m-76 -1008 c146
-15 260 -44 358 -91 183 -89 259 -237 146 -285 -47 -19 -76 -10 -133 41 -74
66 -176 109 -309 130 -47 7 -51 2 -26 -35 50 -76 104 -115 213 -154 41 -15 83
-35 93 -44 25 -22 47 -66 47 -91 0 -32 -49 -81 -142 -142 -186 -122 -411 -180
-1008 -259 -398 -53 -506 -61 -895 -70 -375 -8 -488 -18 -668 -55 -190 -39
-352 -118 -478 -233 -123 -113 -185 -212 -248 -394 -58 -171 -102 -259 -175
-352 -163 -209 -320 -297 -776 -436 -58 -18 -127 -44 -155 -57 -51 -26 -69
-40 -260 -199 -171 -142 -310 -244 -528 -388 -231 -152 -343 -216 -378 -216
-49 0 -98 48 -99 97 0 52 17 82 62 108 24 14 75 44 113 67 219 129 471 308
720 513 248 204 260 211 595 315 202 64 320 120 425 203 127 100 203 213 260
387 42 126 79 211 120 275 20 31 35 58 33 59 -2 1 -24 10 -51 20 -202 75 -331
320 -299 569 15 117 55 234 95 275 25 26 39 32 73 32 60 0 80 -22 114 -124 37
-111 67 -162 130 -225 82 -82 186 -123 361 -141 87 -9 100 -7 209 21 195 49
285 59 630 69 455 14 649 27 920 61 506 63 831 129 964 196 l28 15 -64 43
c-117 78 -172 166 -205 327 -16 82 -16 89 0 122 11 25 26 38 49 45 18 5 34 10
34 10 1 1 48 -4 105 -9z"/>
<path d="M2311 3787 c15 -115 96 -217 214 -272 l69 -32 52 41 c29 22 51 43 48
47 -2 4 -24 12 -50 18 -107 27 -218 102 -287 195 -22 28 -42 52 -46 54 -4 1
-4 -21 0 -51z m220 -181 c40 -20 78 -36 85 -36 25 0 24 -19 -1 -36 -24 -15
-28 -15 -70 1 -76 29 -170 120 -190 185 -7 20 2 16 49 -27 31 -28 88 -68 127
-87z"/>
<path d="M6364 4290 c-11 -4 -33 -22 -47 -40 -52 -61 -29 -153 48 -190 65 -32
112 -24 159 26 36 40 41 75 18 127 -29 66 -115 103 -178 77z m126 -48 c46 -39
52 -96 15 -140 -23 -28 -33 -32 -74 -32 -53 0 -84 18 -107 62 -30 57 -1 120
62 137 40 10 67 3 104 -27z"/>
<path d="M2733 1120 l-1731 -5 -26 -24 c-15 -14 -31 -42 -38 -62 -9 -32 -8
-43 9 -76 11 -21 35 -48 53 -60 l33 -23 3008 0 c1655 0 3009 -2 3009 -5 0 -3
-9 -24 -20 -46 -12 -22 -30 -77 -42 -122 -26 -106 -20 -224 17 -324 43 -113
47 -103 -34 -103 l-71 0 21 40 c32 62 9 133 -55 168 -43 23 -247 23 -292 -1
-65 -34 -88 -104 -55 -167 l21 -40 -838 -2 c-460 -2 -1107 -3 -1437 -3 l-600
0 -31 -22 c-64 -46 -78 -120 -32 -179 45 -57 -72 -54 1987 -54 1384 -1 1912 2
1943 11 121 32 233 127 300 255 50 95 71 181 71 289 1 245 -137 455 -352 536
l-56 21 -1515 1 c-833 1 -2294 0 -3247 -3z m4853 -64 c182 -90 287 -267 288
-486 1 -145 -30 -244 -107 -349 -66 -89 -127 -137 -213 -166 -44 -15 -218 -16
-1962 -15 -2078 1 -1954 -3 -1980 55 -19 41 -14 72 17 107 l29 33 1721 3 1721
2 -23 38 c-96 152 -102 377 -15 545 18 34 34 65 36 70 2 4 -1364 7 -3036 7
l-3039 0 -27 27 c-42 42 -46 91 -12 138 14 19 29 20 278 25 145 3 1609 5 3254
5 l2990 0 80 -39z m-705 -624 c40 -45 40 -93 -1 -134 l-30 -30 -136 4 c-135 3
-136 3 -160 31 -30 35 -31 85 -3 121 32 41 53 46 182 43 l119 -2 29 -33z"/>
<path d="M7367 876 c-43 -19 -114 -95 -136 -145 -37 -87 -45 -160 -27 -247 29
-142 114 -242 214 -252 62 -5 112 19 171 83 126 137 128 359 4 496 -64 71
-154 97 -226 65z m142 -31 c45 -23 108 -102 128 -158 23 -69 23 -176 -1 -246
-20 -58 -89 -142 -138 -167 -47 -24 -110 -18 -156 16 -144 104 -159 380 -29
510 23 24 51 46 62 51 33 13 104 10 134 -6z"/>
<path d="M6134 806 c-47 -21 -74 -61 -74 -112 0 -36 6 -51 34 -82 l34 -37 336
-3 c372 -3 384 -1 420 59 33 56 5 145 -55 176 -36 19 -652 17 -695 -1z m710
-41 c41 -45 39 -114 -4 -147 -23 -17 -50 -18 -358 -19 -366 -1 -366 -1 -392
60 -16 40 4 100 40 118 19 9 112 13 358 13 l333 0 23 -25z"/>
<path d="M73 684 c-44 -22 -66 -60 -66 -112 0 -37 5 -49 36 -80 l37 -37 1271
-3 c1432 -3 1324 -8 1360 73 15 33 16 49 8 78 -11 40 -40 74 -77 88 -14 5
-554 9 -1280 9 -1125 0 -1260 -2 -1289 -16z m2594 -38 c23 -20 28 -32 28 -71
0 -39 -5 -51 -28 -71 l-28 -24 -1275 0 -1276 0 -29 29 c-42 42 -41 99 2 135
l31 26 1273 0 1274 0 28 -24z"/>
<path d="M3463 693 c-34 -7 -80 -58 -87 -98 -9 -48 18 -102 64 -127 30 -16 60
-18 238 -18 168 0 210 3 238 16 64 31 85 116 44 175 -39 53 -67 59 -282 58
-106 -1 -203 -4 -215 -6z m448 -36 c55 -43 61 -118 12 -157 -24 -19 -39 -20
-245 -20 l-220 0 -29 29 c-21 22 -29 39 -29 66 0 27 8 44 29 66 l29 29 219 0
c156 -1 223 -4 234 -13z"/>
<path d="M5050 693 c-31 -11 -70 -58 -76 -89 -9 -48 27 -117 72 -139 30 -14
65 -16 243 -13 192 3 211 5 231 23 52 47 63 108 30 162 -35 58 -56 63 -282 62
-112 0 -210 -3 -218 -6z m469 -54 c38 -46 35 -95 -9 -139 -19 -19 -32 -20
-236 -20 l-216 0 -29 31 c-35 38 -39 94 -10 130 19 23 24 24 218 29 223 6 255
2 282 -31z"/>
<path d="M326 260 c-101 -31 -123 -153 -39 -217 l36 -28 660 -3 c642 -2 661
-2 701 18 23 11 50 34 60 51 39 65 -4 157 -83 179 -45 12 -1294 12 -1335 0z
m1348 -30 c34 -13 58 -52 58 -97 0 -30 -6 -43 -33 -65 l-33 -28 -666 0 c-611
0 -668 1 -690 17 -38 26 -49 45 -50 81 0 38 25 80 54 92 30 12 1329 12 1360 0z"/>
<path d="M2294 254 c-79 -39 -104 -118 -58 -181 47 -64 40 -64 556 -61 l466 3
38 31 c69 56 65 144 -9 198 -28 20 -41 21 -495 23 -408 3 -471 1 -498 -13z
m971 -26 c47 -21 72 -103 43 -140 -40 -49 -31 -48 -526 -48 -483 0 -489 1
-524 44 -21 25 -23 85 -5 108 39 49 30 48 524 48 337 0 469 -3 488 -12z"/>
</g>
</svg>
