<?xml version="1.0" standalone="no"?>
<!DOCTYPE svg PUBLIC "-//W3C//DTD SVG 20010904//EN"
 "http://www.w3.org/TR/2001/REC-SVG-20010904/DTD/svg10.dtd">
<svg version="1.0" xmlns="http://www.w3.org/2000/svg"
 width="835.000000pt" height="835.000000pt" viewBox="0 0 835.000000 835.000000"
 preserveAspectRatio="xMidYMid meet">
<metadata>
Created by potrace 1.14, written by Peter Selinger 2001-2017
</metadata>
<g transform="translate(0.000000,835.000000) scale(0.100000,-0.100000)"
fill="#000000" stroke="none">
<path d="M4030 8306 c0 -15 -3 -16 -14 -7 -11 9 -15 9 -19 -1 -4 -9 -6 -9 -6
-1 -1 8 -10 9 -32 3 -18 -5 -35 -7 -40 -5 -4 3 -10 1 -14 -4 -3 -7 -15 -7 -30
-1 -13 5 -27 6 -29 1 -3 -4 -18 -7 -33 -6 -15 1 -31 -3 -35 -9 -5 -7 -8 -7 -8
2 0 6 -5 12 -11 12 -5 0 -7 -5 -3 -12 5 -8 2 -9 -9 -5 -9 3 -19 2 -23 -4 -4
-6 -11 -6 -20 2 -10 8 -14 8 -14 0 0 -6 -13 -9 -30 -7 -16 2 -30 -1 -30 -7 0
-5 -8 -3 -17 4 -12 10 -15 10 -9 1 6 -10 -1 -12 -28 -9 -23 3 -33 0 -29 -6 4
-6 0 -8 -9 -4 -9 3 -27 -1 -42 -8 -16 -9 -28 -10 -32 -4 -4 6 -13 4 -24 -6
-14 -12 -20 -13 -26 -4 -5 8 -3 10 6 4 9 -6 11 -4 5 5 -6 10 -10 10 -19 -2 -6
-9 -25 -15 -41 -15 -19 1 -29 -3 -27 -11 2 -10 -3 -10 -18 -2 -14 8 -20 8 -20
0 0 -6 -4 -9 -9 -5 -5 3 -12 1 -16 -5 -4 -6 -11 -8 -16 -5 -5 4 -9 2 -9 -4 0
-6 -6 -8 -14 -5 -8 3 -17 1 -20 -5 -4 -6 -13 -8 -21 -4 -9 3 -15 -1 -15 -8 0
-9 -3 -10 -8 -4 -4 6 -13 11 -21 13 -11 2 -12 0 -3 -11 10 -11 5 -13 -27 -13
-22 1 -37 -2 -35 -5 7 -12 -34 -17 -46 -5 -8 8 -9 7 -4 -7 4 -13 2 -16 -9 -11
-8 3 -18 0 -22 -6 -5 -8 -11 -8 -21 1 -12 9 -13 9 -9 -3 5 -12 0 -15 -19 -13
-15 2 -24 -1 -20 -6 3 -5 -6 -9 -20 -9 -14 0 -26 -4 -26 -9 0 -5 -8 -8 -17 -7
-10 2 -20 0 -23 -5 -3 -4 -18 -10 -34 -13 -16 -3 -32 -10 -36 -16 -3 -5 -18
-11 -33 -12 -15 -1 -27 -6 -27 -10 0 -4 -9 -8 -21 -8 -11 0 -18 -4 -15 -8 2
-4 -5 -9 -16 -9 -12 -1 -25 -8 -29 -15 -7 -10 -9 -10 -9 2 -1 12 -3 12 -14 -2
-10 -14 -15 -15 -25 -5 -10 9 -11 8 -5 -7 5 -14 3 -17 -7 -14 -8 3 -20 -2 -27
-11 -8 -9 -11 -11 -8 -4 4 7 -1 9 -14 6 -11 -3 -20 -10 -20 -15 0 -6 -7 -8
-15 -4 -8 3 -14 0 -12 -6 1 -6 -4 -13 -12 -16 -9 -3 -11 0 -7 9 4 8 -1 4 -12
-8 -15 -17 -22 -19 -31 -10 -10 9 -12 9 -9 -3 2 -8 -3 -14 -11 -12 -9 2 -11
-3 -7 -13 3 -9 2 -13 -4 -10 -14 8 -52 -4 -45 -15 3 -4 -4 -6 -15 -3 -11 3
-20 0 -20 -6 0 -11 -37 -30 -52 -27 -4 0 -13 -8 -21 -18 -9 -12 -21 -17 -35
-14 -16 4 -19 2 -15 -10 5 -11 2 -14 -10 -9 -9 3 -17 2 -17 -3 0 -5 -12 -13
-26 -16 -15 -4 -23 -12 -20 -20 3 -8 0 -11 -8 -8 -8 3 -26 -7 -42 -23 -15 -15
-22 -20 -14 -10 11 15 11 17 -4 11 -9 -3 -16 -11 -16 -16 0 -6 -7 -7 -16 -4
-14 5 -15 4 -5 -8 11 -13 9 -15 -9 -11 -16 3 -20 0 -16 -10 3 -9 0 -12 -9 -9
-7 3 -22 -3 -32 -13 -20 -20 -53 -37 -66 -35 -4 1 -6 -4 -5 -10 2 -7 -3 -12
-11 -10 -8 2 -11 -3 -8 -11 4 -11 0 -13 -14 -10 -15 4 -18 2 -13 -11 5 -12 2
-15 -10 -10 -10 4 -18 0 -22 -10 -4 -11 -13 -15 -28 -11 -17 5 -18 4 -6 -4 14
-10 7 -16 -14 -12 -5 1 -6 -4 -3 -12 3 -7 0 -14 -6 -15 -47 -7 -57 -9 -64 -17
-5 -4 -2 -5 5 -1 6 4 12 2 12 -4 0 -6 -11 -15 -25 -20 -14 -5 -25 -14 -25 -20
0 -6 -6 -8 -12 -4 -10 6 -10 5 0 -8 10 -13 9 -15 -13 -13 -14 2 -28 -2 -32 -7
-3 -7 -1 -8 5 -4 7 4 12 2 12 -3 0 -10 -14 -15 -34 -12 -5 1 -6 -5 -3 -13 4
-9 3 -15 -1 -15 -22 4 -33 -3 -29 -15 4 -10 0 -13 -14 -11 -11 2 -17 0 -14 -6
4 -5 1 -9 -5 -9 -6 0 -8 -6 -4 -12 4 -7 4 -10 0 -7 -6 6 -31 -11 -77 -53 -10
-10 -24 -18 -29 -18 -5 0 -10 -5 -10 -11 0 -5 5 -7 12 -3 7 4 8 3 4 -4 -4 -7
-14 -12 -22 -12 -8 0 -14 -4 -14 -10 0 -5 -7 -10 -16 -10 -8 0 -13 -4 -10 -9
3 -5 -1 -12 -9 -15 -8 -3 -14 -11 -13 -18 2 -8 -5 -12 -15 -10 -9 2 -16 -1
-15 -5 4 -10 -44 -59 -54 -56 -4 2 -5 -4 -2 -12 4 -8 1 -15 -6 -15 -19 0 -42
-30 -36 -47 5 -13 4 -14 -8 -4 -10 8 -16 9 -21 1 -3 -5 0 -10 7 -10 7 0 -2 -9
-20 -20 -21 -13 -32 -26 -28 -35 3 -9 -1 -12 -14 -10 -13 3 -17 -1 -13 -11 3
-8 1 -14 -4 -14 -6 0 -15 -10 -22 -22 -9 -19 -11 -19 -6 -3 5 18 3 18 -13 -3
-10 -13 -21 -20 -25 -15 -10 9 -38 13 -32 4 2 -4 -14 -8 -37 -9 -22 -1 -46 -6
-53 -12 -6 -5 -15 -7 -18 -4 -4 4 -18 -1 -32 -10 -14 -9 -30 -14 -35 -11 -6 3
-10 -2 -10 -12 0 -15 -2 -16 -10 -3 -8 12 -10 12 -16 -3 -3 -9 -10 -17 -16
-17 -5 0 -6 6 -2 13 4 6 -5 1 -18 -13 -14 -14 -23 -29 -20 -35 3 -5 -3 -3 -13
5 -11 9 -16 10 -11 2 4 -7 1 -15 -8 -18 -9 -3 -13 -11 -9 -17 4 -7 0 -8 -13
-3 -10 4 -15 4 -12 0 10 -10 -11 -46 -22 -39 -6 3 -7 0 -4 -8 3 -8 -3 -22 -13
-32 -9 -10 -18 -25 -19 -33 -2 -8 -9 -19 -16 -23 -10 -7 -10 -9 2 -9 12 -1 11
-3 -3 -14 -12 -10 -15 -16 -7 -21 8 -5 7 -11 -2 -22 -13 -16 -19 -35 -21 -70
0 -13 -5 -23 -9 -23 -11 0 -6 -23 7 -32 6 -5 4 -8 -5 -8 -13 0 -13 -1 0 -10
13 -8 13 -10 -2 -10 -9 0 -20 -5 -24 -12 -4 -6 -3 -8 4 -4 6 3 13 2 17 -4 3
-5 2 -10 -2 -10 -12 0 -10 -53 2 -62 6 -5 5 -8 -3 -8 -7 0 -10 -5 -6 -11 3 -6
0 -15 -7 -20 -12 -7 -12 -9 0 -9 11 0 11 -3 0 -17 -12 -15 -12 -16 5 -9 18 6
19 5 5 -11 -15 -19 -18 -41 -6 -60 4 -6 1 -18 -7 -26 -8 -8 -18 -26 -22 -41
-3 -14 -10 -23 -15 -20 -5 3 -9 2 -8 -3 4 -16 -13 -63 -23 -63 -5 0 -6 6 -2
13 4 7 3 9 -2 4 -12 -12 -12 -30 1 -39 6 -5 3 -8 -7 -8 -11 0 -15 -7 -14 -24
2 -19 -1 -23 -18 -19 -16 4 -17 2 -7 -5 9 -7 10 -12 2 -16 -6 -4 -11 -16 -11
-27 0 -10 -4 -19 -9 -19 -5 0 -12 -16 -15 -35 -4 -19 -12 -37 -18 -41 -6 -4
-8 -3 -4 4 3 6 2 13 -3 16 -10 7 -9 -13 2 -31 4 -7 -1 -14 -13 -18 -11 -4 -18
-11 -14 -16 3 -5 11 -6 17 -2 7 4 6 0 -2 -10 -7 -9 -18 -14 -25 -10 -7 4 -7 1
1 -7 10 -11 9 -16 -5 -27 -10 -9 -11 -12 -2 -7 12 7 13 5 3 -8 -7 -8 -10 -18
-6 -21 3 -4 -2 -7 -12 -7 -15 0 -16 -3 -7 -12 15 -15 16 -32 2 -23 -9 5 -15
-24 -11 -48 1 -5 -4 -5 -10 -1 -8 5 -10 -1 -7 -20 3 -16 1 -29 -6 -32 -7 -3
-12 -14 -13 -25 -1 -12 -10 -30 -19 -41 -16 -17 -16 -18 -1 -13 14 6 14 3 4
-18 -6 -14 -15 -23 -18 -21 -9 5 -6 -17 5 -35 6 -9 5 -12 -1 -8 -12 7 -25 -25
-25 -60 -1 -13 -5 -23 -10 -23 -5 0 -6 -10 -3 -21 6 -16 4 -20 -6 -13 -10 6
-10 3 1 -11 9 -11 10 -16 3 -11 -9 5 -13 1 -14 -11 0 -10 -3 -27 -5 -38 -3
-11 -5 -30 -6 -42 0 -13 -3 -21 -7 -19 -4 3 -6 -8 -5 -22 0 -15 -4 -30 -10
-34 -8 -6 -6 -11 4 -18 12 -7 12 -12 2 -22 -6 -6 -12 -20 -12 -31 0 -12 -4
-16 -13 -11 -9 6 -9 4 -1 -7 12 -15 13 -47 0 -67 -4 -6 -4 -16 -1 -22 3 -5 2
-10 -4 -10 -6 0 -6 -11 -1 -29 7 -25 6 -29 -8 -24 -10 4 -14 3 -10 -2 4 -4 3
-14 -3 -22 -9 -10 -7 -13 6 -13 14 0 15 -3 6 -14 -9 -11 -9 -16 0 -22 9 -5 7
-11 -6 -21 -14 -9 -15 -13 -4 -13 12 0 12 -2 -1 -10 -13 -9 -13 -11 0 -20 14
-9 7 -15 -15 -10 -5 1 -1 -9 10 -21 11 -12 14 -19 8 -15 -7 4 -13 2 -14 -3 -1
-20 0 -101 1 -103 7 -12 6 -37 -1 -32 -5 3 -6 10 -3 16 4 7 2 8 -4 4 -9 -5 -9
-13 -1 -27 6 -11 8 -27 5 -35 -3 -8 0 -14 7 -14 7 0 8 -3 2 -8 -13 -9 -18 -75
-5 -67 6 3 7 0 4 -9 -3 -9 -11 -16 -16 -16 -6 0 -5 -6 2 -15 10 -12 9 -15 -6
-16 -16 0 -16 -2 3 -9 13 -5 23 -12 23 -15 0 -4 -4 -4 -9 -1 -5 3 -11 -1 -14
-8 -3 -8 -1 -17 6 -20 9 -3 8 -8 -3 -15 -14 -10 -8 -15 13 -12 4 1 2 -8 -5
-19 -10 -15 -10 -22 0 -32 9 -9 8 -16 -5 -30 -16 -18 -16 -18 3 -11 18 7 18 6
1 -20 -14 -22 -14 -25 -2 -21 13 5 14 2 6 -18 -5 -14 -6 -31 -1 -39 6 -8 4
-16 -3 -21 -8 -5 -6 -11 8 -22 19 -14 19 -15 1 -22 -17 -7 -17 -8 5 -21 l24
-14 -23 5 c-19 4 -21 2 -12 -9 7 -8 9 -19 5 -25 -3 -5 -2 -10 4 -10 6 0 8 -7
4 -16 -3 -9 0 -20 8 -25 8 -5 9 -9 3 -9 -6 0 -11 -7 -11 -15 0 -8 5 -15 10
-15 6 0 7 -3 4 -7 -4 -3 -2 -12 4 -20 9 -10 7 -13 -7 -13 -13 0 -15 -3 -7 -8
7 -5 14 -20 15 -35 1 -15 5 -27 9 -27 3 0 5 -10 4 -22 -1 -13 2 -31 7 -42 7
-13 7 -16 -1 -12 -16 10 -13 -10 4 -28 10 -10 12 -17 5 -21 -8 -5 -7 -11 1
-21 6 -8 8 -14 4 -14 -4 0 -2 -7 5 -15 10 -12 10 -15 -1 -15 -10 -1 -8 -4 4
-11 13 -8 15 -14 7 -30 -7 -12 -7 -19 -1 -19 5 0 9 -12 7 -27 -1 -16 5 -34 14
-41 13 -11 13 -12 0 -6 -10 5 -8 -1 5 -16 11 -13 14 -20 8 -16 -7 4 -13 2 -13
-3 0 -6 4 -11 9 -11 5 0 8 -11 6 -25 -1 -15 4 -29 14 -35 11 -6 12 -9 3 -10
-7 0 -10 -5 -7 -10 4 -6 12 -7 18 -3 7 3 3 -4 -8 -16 -11 -12 -15 -22 -10 -21
28 6 34 0 25 -25 -7 -19 -6 -27 3 -31 14 -5 15 -10 18 -59 1 -14 6 -22 12 -18
6 4 8 0 4 -10 -3 -10 -2 -17 2 -17 5 0 7 -9 4 -20 -3 -12 0 -20 6 -20 7 0 9 5
5 12 -4 7 -3 8 5 4 9 -6 9 -11 0 -22 -9 -11 -9 -14 0 -14 7 0 9 -4 6 -10 -3
-5 0 -10 7 -10 9 0 9 -3 -2 -10 -12 -8 -12 -10 5 -10 17 0 17 -2 5 -10 -12 -7
-12 -10 -1 -10 7 0 11 -6 7 -15 -3 -8 -1 -15 3 -15 5 0 8 -11 7 -24 -2 -18 1
-23 12 -18 9 3 13 1 9 -5 -3 -5 1 -22 8 -37 8 -16 12 -33 8 -39 -3 -6 -1 -7 5
-3 7 4 12 3 12 -3 0 -5 -6 -12 -12 -14 -8 -4 -7 -6 3 -6 9 -1 20 -8 23 -17 4
-10 2 -13 -7 -9 -6 4 -5 1 4 -7 9 -7 15 -21 13 -31 -1 -9 4 -24 12 -31 8 -8
14 -22 14 -31 0 -12 5 -15 18 -10 13 5 14 3 5 -6 -9 -9 -8 -15 3 -27 13 -12
13 -16 2 -23 -10 -7 -9 -9 5 -9 11 0 15 -4 11 -11 -4 -7 4 -20 17 -31 13 -11
18 -17 12 -13 -19 9 -16 -2 8 -26 17 -17 18 -23 7 -37 -9 -11 -10 -14 0 -8 7
4 12 2 12 -4 0 -6 5 -8 12 -4 6 4 8 3 4 -4 -9 -15 25 -83 37 -75 6 4 8 0 4
-10 -3 -9 0 -18 9 -21 8 -3 14 -13 14 -21 0 -9 4 -14 8 -11 4 2 9 -5 9 -17 1
-12 7 -23 13 -25 5 -2 10 -8 10 -14 0 -5 7 -16 16 -25 8 -9 13 -22 10 -29 -3
-8 0 -13 6 -11 5 1 19 -14 30 -33 11 -19 28 -42 39 -51 14 -12 15 -19 7 -27
-9 -9 -7 -12 10 -12 15 0 22 -6 22 -20 0 -12 7 -20 18 -20 14 0 15 -2 2 -10
-13 -8 -12 -10 3 -10 9 0 17 -7 17 -15 0 -8 5 -15 10 -15 6 0 10 -7 10 -15 0
-8 7 -15 16 -15 8 0 13 -4 10 -8 -6 -11 4 -25 34 -45 15 -11 19 -17 10 -17
-11 -1 -11 -3 3 -11 9 -6 15 -14 12 -20 -3 -5 1 -6 10 -3 9 4 15 3 13 -2 -6
-22 14 -52 32 -49 13 3 17 -1 13 -11 -3 -7 2 -17 11 -20 9 -3 16 -13 16 -21 0
-8 5 -11 12 -7 8 5 9 2 5 -9 -3 -10 -2 -17 4 -17 15 0 39 -26 39 -42 0 -7 5
-20 11 -28 8 -12 9 -9 4 10 -6 25 -6 25 12 -3 11 -15 23 -24 26 -20 7 6 11
-13 7 -32 -1 -5 2 -7 6 -3 4 5 14 -1 21 -12 8 -11 18 -18 23 -15 5 3 11 -4 15
-15 3 -11 11 -20 16 -20 6 0 7 -4 4 -10 -3 -5 2 -10 13 -10 10 0 24 -11 30
-25 6 -14 16 -25 22 -25 5 0 10 -5 10 -11 0 -5 -5 -7 -12 -3 -7 4 -8 3 -4 -5
6 -9 11 -9 21 -1 12 10 13 8 10 -10 -3 -18 -2 -20 10 -10 12 10 15 9 15 -9 0
-12 5 -19 10 -16 5 3 10 0 10 -8 0 -8 10 -17 21 -20 14 -4 20 -11 16 -21 -4
-10 -1 -13 7 -10 7 3 16 -2 19 -10 4 -9 14 -16 22 -16 9 0 14 -4 11 -9 -3 -5
5 -12 19 -15 14 -4 25 -13 25 -21 0 -8 5 -15 11 -15 5 0 7 -4 4 -10 -3 -6 1
-7 10 -4 9 4 15 3 14 -2 -4 -21 2 -28 12 -14 9 12 10 11 6 -8 -3 -12 -1 -20 3
-17 16 10 40 -7 40 -29 0 -17 2 -18 10 -6 6 10 10 11 10 3 0 -7 7 -13 16 -13
8 0 12 -4 9 -10 -3 -5 1 -10 10 -10 9 0 13 -5 10 -10 -5 -9 16 -15 38 -11 5 1
6 -3 2 -9 -3 -5 -1 -10 5 -10 6 0 8 -5 4 -12 -5 -8 -2 -9 9 -5 12 4 17 1 17
-10 0 -9 3 -13 6 -10 4 3 15 -5 26 -18 11 -14 23 -23 28 -20 5 3 13 -2 18 -11
6 -11 16 -15 27 -10 15 5 16 4 6 -8 -11 -13 -9 -15 8 -11 12 2 20 1 17 -3 -2
-4 3 -16 11 -27 12 -15 14 -16 10 -3 -4 12 -2 15 9 11 7 -3 14 -12 14 -20 0
-7 6 -13 13 -12 19 3 48 -12 41 -22 -3 -5 2 -9 11 -9 9 0 13 -4 10 -10 -3 -5
0 -7 8 -4 8 3 18 0 23 -7 5 -8 3 -10 -6 -4 -9 6 -11 4 -6 -4 5 -7 10 -10 13
-7 6 6 63 -21 63 -30 0 -3 -5 -2 -12 2 -7 4 -8 3 -4 -4 4 -6 13 -9 21 -6 8 4
18 -1 21 -10 3 -9 15 -16 25 -16 10 0 19 -4 19 -10 0 -5 9 -10 21 -10 12 0 18
-4 13 -11 -4 -7 -1 -10 6 -7 7 2 24 -6 38 -19 14 -13 33 -23 43 -23 11 0 19
-5 19 -11 0 -5 4 -8 9 -5 5 3 12 -1 15 -10 3 -8 10 -13 15 -9 5 3 13 0 16 -6
4 -5 13 -8 21 -5 8 3 11 0 7 -10 -4 -10 0 -12 10 -8 9 3 25 -3 37 -14 12 -11
32 -19 46 -17 18 2 24 -2 20 -12 -3 -8 -1 -11 4 -8 6 4 22 -3 36 -14 15 -12
32 -21 38 -21 6 0 4 5 -4 10 -23 15 -6 12 26 -4 15 -8 32 -12 37 -9 6 3 7 1 3
-5 -3 -6 3 -16 15 -22 17 -10 20 -9 13 2 -6 10 -4 10 9 -1 10 -8 20 -11 23 -8
4 3 15 -4 26 -16 11 -12 17 -16 13 -9 -3 6 -1 12 4 12 6 0 11 -4 11 -10 0 -5
9 -10 21 -10 11 0 18 -4 15 -9 -3 -5 8 -8 24 -7 19 1 29 -2 26 -9 -3 -10 11
-15 57 -18 9 -1 17 -5 17 -9 0 -4 9 -8 19 -8 11 0 23 -5 26 -10 5 -8 12 -7 23
2 12 10 14 10 8 1 -4 -8 -2 -13 4 -13 6 0 9 -4 6 -8 -3 -5 1 -9 9 -9 8 0 12 4
9 9 -5 8 46 -12 56 -22 11 -11 34 -10 41 2 7 10 9 9 9 -4 0 -12 5 -15 17 -11
10 4 14 2 10 -4 -4 -6 3 -9 18 -7 14 1 28 -2 31 -7 3 -6 11 -5 20 2 12 10 13
9 7 -7 -6 -17 -5 -17 10 -5 15 12 21 9 18 -11 0 -4 6 -5 14 -2 8 4 23 3 33 -1
21 -10 30 -12 65 -13 16 -1 26 -6 23 -10 -6 -11 25 -9 43 3 9 5 12 4 8 -2 -4
-6 0 -14 9 -17 10 -4 13 -2 8 7 -4 6 2 4 13 -6 13 -11 23 -14 27 -8 4 6 16 4
34 -5 16 -8 28 -10 30 -4 2 6 16 3 32 -7 25 -14 31 -15 46 -2 10 8 15 9 11 2
-4 -6 -3 -14 3 -18 5 -3 10 -1 10 6 0 10 3 10 12 1 8 -8 17 -8 30 -1 10 5 18
6 17 2 -3 -20 2 -24 16 -13 12 10 16 9 21 -4 3 -9 10 -13 15 -10 5 3 6 11 2
17 -5 9 -3 9 8 1 19 -15 70 -24 62 -11 -4 6 -1 7 8 1 8 -5 22 -7 32 -6 9 2 17
-3 17 -10 0 -9 3 -9 10 2 9 13 10 13 10 0 0 -13 1 -13 10 0 8 12 10 12 10 1 0
-11 3 -11 17 0 11 10 14 10 9 1 -5 -8 -1 -11 16 -8 13 2 29 -2 37 -8 11 -8 13
-8 8 1 -4 6 -3 14 3 18 5 3 10 2 10 -2 0 -9 26 -13 110 -16 30 -1 61 -6 67
-10 9 -6 11 -3 6 10 -6 16 -5 16 10 4 9 -7 17 -10 17 -6 0 4 8 1 17 -6 9 -8
14 -9 10 -3 -4 7 0 14 7 17 8 3 17 1 20 -6 3 -9 7 -8 14 2 8 11 11 10 15 -5 4
-16 5 -16 6 -2 1 11 6 15 16 12 9 -4 15 0 15 7 0 11 3 11 10 -1 6 -9 13 -11
18 -5 8 12 32 13 50 2 7 -5 12 -3 12 4 0 8 4 8 15 -1 12 -10 15 -10 15 0 0 9
4 9 17 -1 9 -8 14 -9 10 -3 -4 7 7 11 30 12 19 1 42 7 51 14 9 7 13 8 9 2 -4
-7 5 -11 24 -11 18 0 25 3 17 8 -6 4 15 7 49 6 34 -1 59 1 57 5 -2 4 0 9 6 13
5 3 10 2 10 -3 0 -5 11 -7 25 -4 14 2 22 9 19 14 -4 6 3 5 15 -1 14 -8 21 -8
21 -1 0 5 3 9 8 9 4 -1 12 0 17 1 6 1 15 3 20 5 6 1 27 3 48 3 21 1 36 6 33
10 -3 5 1 9 9 9 8 0 11 -5 8 -11 -4 -6 1 -5 10 2 9 8 22 10 28 6 9 -5 10 -2 5
11 -5 14 -4 16 7 7 10 -9 17 -8 27 1 10 9 11 9 6 0 -5 -9 -2 -11 8 -7 9 3 16
11 16 17 0 7 4 7 12 -1 15 -15 31 -16 22 0 -5 8 -2 9 9 5 10 -3 17 -2 17 3 0
6 3 9 8 9 22 -4 42 2 37 10 -3 6 6 8 20 5 16 -3 25 0 25 8 0 9 3 8 10 -2 8
-12 10 -12 10 -1 0 10 3 11 14 2 11 -10 16 -9 24 4 5 9 12 16 15 16 21 -3 27
0 21 12 -6 9 -4 9 8 -1 13 -10 17 -10 21 0 4 10 6 9 6 -1 1 -11 5 -10 15 4 7
10 26 20 42 22 16 3 32 10 36 16 6 9 8 8 8 -2 0 -11 3 -11 15 -1 8 6 19 9 24
6 5 -4 12 -2 16 4 4 6 11 7 17 4 7 -4 8 -2 4 4 -5 8 0 12 13 12 11 0 23 5 26
11 4 6 14 8 22 5 11 -5 13 -2 9 10 -5 14 -4 15 9 4 11 -9 15 -9 15 -1 0 7 5 9
10 6 6 -3 13 1 17 11 6 15 7 15 21 -2 13 -16 14 -17 9 -1 -5 12 -1 17 13 17
11 0 20 5 20 10 0 6 5 10 11 10 5 0 7 -6 3 -12 -6 -10 -5 -10 8 -1 8 7 19 9
23 5 5 -4 5 -1 1 5 -4 7 -2 13 4 13 6 0 8 4 5 10 -3 6 1 7 10 4 8 -4 22 -1 30
6 8 6 20 8 26 4 8 -5 9 -3 4 6 -6 10 -4 12 9 7 11 -5 15 -3 10 5 -5 7 1 9 20
6 23 -5 24 -3 14 10 -10 13 -10 14 0 8 6 -4 12 -2 12 3 0 6 4 11 10 11 5 0 7
-8 3 -17 -3 -12 1 -10 12 5 10 13 23 21 32 18 8 -3 12 -2 9 3 -3 5 2 15 11 22
12 10 14 10 9 2 -4 -7 -2 -13 3 -13 6 0 11 5 11 11 0 6 7 9 15 5 11 -4 15 1
15 17 0 15 3 18 8 9 7 -10 15 -6 36 14 16 16 24 21 20 11 -9 -26 10 -20 21 6
7 15 17 21 32 19 12 -2 24 2 28 8 3 6 11 7 17 4 6 -4 8 -3 5 3 -3 5 3 17 13
26 13 11 20 12 24 4 2 -7 5 -4 5 7 1 16 3 16 17 6 8 -8 14 -9 13 -4 -4 23 3
33 22 29 15 -3 19 0 15 10 -3 8 -2 14 2 14 21 -3 32 2 26 13 -5 8 -2 9 9 5 10
-3 17 -2 17 4 0 6 4 7 10 4 5 -3 7 0 4 9 -4 11 0 14 15 11 14 -3 19 0 15 7 -5
7 -1 9 9 5 12 -4 17 -1 17 9 0 10 6 14 14 11 8 -3 13 1 12 10 0 9 8 17 18 19
10 1 22 7 25 12 3 4 14 11 24 15 10 4 15 11 12 17 -4 6 1 7 11 3 12 -4 15 -3
10 6 -6 8 -2 11 10 9 11 -2 18 2 17 9 -2 7 6 10 19 8 11 -3 18 -2 15 1 -7 8
25 44 34 38 4 -2 16 7 27 21 11 13 22 22 25 19 3 -3 8 4 12 15 3 12 11 19 16
15 5 -3 6 -10 3 -16 -4 -7 -2 -8 4 -4 6 4 8 14 5 23 -5 12 -3 14 7 8 10 -6 12
-4 7 9 -4 11 -3 15 4 11 6 -4 17 1 25 11 9 11 13 13 9 4 -4 -8 1 -6 10 5 9 11
20 19 25 18 5 -2 6 5 3 14 -4 11 -3 14 5 9 7 -4 12 -2 12 4 0 6 5 8 10 5 6 -3
10 2 10 11 0 10 3 14 7 11 3 -4 13 3 21 14 12 17 16 18 23 8 7 -10 8 -5 5 13
-3 19 -1 25 9 22 15 -6 38 29 27 41 -4 5 -2 5 5 2 6 -4 19 1 29 10 10 10 20
17 23 16 3 -2 6 3 6 10 1 6 7 11 15 9 11 -3 11 0 1 12 -11 13 -9 15 9 11 16
-3 20 0 16 10 -3 9 1 12 15 10 11 -2 17 0 14 5 -3 6 -1 18 4 27 8 14 11 15 11
3 0 -8 8 0 16 17 9 18 20 31 24 28 11 -7 51 40 43 50 -5 4 0 5 10 2 10 -4 16
-3 13 2 -7 11 59 82 68 73 4 -3 4 1 1 10 -4 9 -1 19 6 24 8 5 10 3 4 -7 -6
-10 -5 -11 4 -3 7 6 13 20 14 32 1 16 4 19 15 10 10 -9 12 -8 10 3 -2 8 2 13
8 12 8 -1 10 6 6 19 -3 14 -1 19 6 14 7 -4 12 -2 12 4 0 6 5 8 10 5 6 -4 10
-3 9 2 -4 21 2 34 13 27 6 -4 8 -3 5 3 -7 12 28 44 39 35 5 -4 2 2 -6 12 -10
13 -10 17 -2 12 7 -4 12 -2 12 4 0 6 5 8 11 4 7 -4 10 -1 7 7 -3 8 6 24 19 37
13 12 21 27 18 32 -3 6 1 10 10 10 11 0 15 5 11 16 -3 8 -2 12 3 9 5 -3 12 -1
16 5 3 5 0 10 -7 10 -7 1 2 7 20 15 33 15 45 32 15 21 -17 -6 -17 -5 0 8 9 7
17 16 17 20 0 13 27 35 35 28 4 -4 5 -2 4 3 -5 18 31 76 43 69 6 -4 8 -3 4 4
-3 5 0 13 6 15 9 4 8 6 -2 6 -11 1 -8 8 10 22 14 11 19 18 11 14 -9 -5 -8 1 4
19 9 14 21 23 26 20 5 -3 6 2 3 10 -4 10 1 18 10 22 14 5 14 9 4 22 -7 9 -8
13 -3 10 9 -5 29 9 32 22 5 23 28 58 35 53 6 -3 5 4 -1 15 -8 15 -7 23 4 32 8
7 12 16 9 21 -3 5 3 6 12 2 12 -4 15 -2 12 8 -3 8 2 19 11 25 13 10 13 15 2
28 -11 13 -10 15 8 11 18 -3 20 -1 11 16 -6 10 -7 19 -3 18 20 -3 24 2 13 16
-10 12 -8 13 11 10 17 -3 20 -2 11 7 -8 8 -7 15 4 26 8 8 13 21 10 28 -3 8 -1
14 5 14 6 0 8 7 5 16 -3 8 -2 12 4 9 6 -3 10 3 10 15 0 11 7 23 15 26 8 4 12
10 9 15 -3 5 1 9 8 9 9 0 9 3 -2 10 -11 7 -11 10 -2 10 7 0 10 5 7 10 -3 6 -1
10 5 10 6 0 9 4 6 9 -4 5 0 11 6 14 10 3 10 7 -1 21 -12 14 -12 16 2 11 8 -4
18 -1 23 6 5 8 3 10 -7 4 -12 -8 -12 -6 0 8 7 9 10 17 5 17 -5 0 -1 5 10 11
14 9 16 13 5 20 -10 6 -8 12 9 28 22 18 22 20 5 30 -17 10 -17 10 1 11 12 0
16 5 12 16 -4 10 -2 13 6 8 8 -5 9 -2 5 9 -3 9 -2 19 3 22 6 4 10 17 10 31 0
14 4 23 9 20 5 -4 8 5 6 19 -1 17 3 25 14 25 9 0 12 3 6 8 -13 9 -18 35 -5 27
6 -4 10 6 10 25 0 22 4 29 13 24 7 -5 6 0 -3 11 -9 11 -10 16 -2 11 7 -4 12
-2 13 6 0 7 3 24 5 38 3 14 6 39 7 57 1 20 6 28 12 23 12 -10 13 29 1 48 -5 8
-3 11 5 10 8 -2 13 8 12 30 0 22 4 32 15 32 13 0 12 3 -3 14 -18 13 -18 14 4
21 18 5 20 9 10 15 -10 7 -10 11 0 24 11 14 11 16 -5 16 -18 1 -18 1 -1 11 9
5 17 15 17 20 0 6 -6 7 -12 3 -9 -5 -9 -2 1 9 7 9 14 35 15 57 0 22 4 40 8 40
4 0 5 12 2 26 -3 14 -1 23 4 20 5 -3 7 6 4 21 -4 20 -2 24 9 19 8 -4 5 0 -5 8
-20 16 -20 16 0 16 16 0 17 2 4 10 -13 8 -13 11 -1 19 8 5 10 14 5 22 -13 21
-14 40 -2 33 7 -4 9 6 6 30 -3 30 -1 36 11 31 13 -5 14 -4 4 6 -7 7 -13 21
-13 32 0 12 4 16 13 11 10 -6 10 -4 0 7 -19 19 -16 39 10 68 12 14 14 19 4 12
-22 -17 -34 -7 -17 14 7 8 9 15 4 15 -5 0 -2 5 6 10 13 8 12 10 -3 10 -15 0
-16 3 -7 20 8 15 8 20 -2 21 -7 0 -4 4 7 9 11 5 14 9 8 9 -7 1 -13 10 -13 22
0 12 4 17 11 13 7 -4 6 3 -2 17 -18 34 -20 62 -2 48 10 -9 10 -3 -2 24 -14 33
-13 37 3 46 13 8 14 10 2 11 -9 0 -15 10 -15 25 0 15 6 25 15 25 9 0 11 3 4 8
-12 8 -28 45 -16 38 10 -6 9 24 0 39 -4 6 -6 31 -5 56 0 24 -2 50 -6 56 -4 6
-1 14 5 17 11 5 11 7 0 12 -6 3 -10 10 -6 15 3 5 0 9 -7 9 -8 0 -8 4 1 15 10
12 10 18 0 30 -8 10 -9 15 -2 15 12 0 -3 55 -21 78 -7 9 -5 11 9 5 16 -6 17
-4 7 9 -7 8 -10 18 -6 21 3 4 1 7 -7 7 -10 0 -10 3 0 15 9 10 9 15 1 15 -6 0
-10 3 -10 8 1 4 1 22 0 40 -1 24 -5 31 -13 26 -10 -6 -10 -5 -1 7 10 12 10 18
0 29 -6 7 -7 10 -1 7 6 -3 11 0 11 7 0 8 -7 12 -15 9 -11 -5 -12 -2 -4 13 7
13 7 26 1 37 -6 9 -7 22 -4 27 3 6 1 10 -6 10 -7 0 -10 11 -7 31 3 21 0 33 -9
36 -12 5 -12 7 -1 14 10 7 11 9 0 9 -7 0 -10 5 -7 10 3 6 0 10 -7 10 -8 0 -6
5 5 11 16 9 15 13 -10 47 -16 20 -22 33 -15 28 6 -4 12 -2 12 3 0 6 -4 11 -10
11 -5 0 -6 7 -3 17 5 12 3 14 -8 8 -11 -7 -11 -5 1 10 8 10 10 16 3 12 -6 -4
-14 -3 -18 3 -3 5 -1 10 6 10 8 0 9 3 0 13 -6 8 -8 17 -4 20 3 4 1 7 -5 7 -7
0 -12 11 -12 25 0 14 -6 25 -12 25 -9 0 -8 3 2 10 13 8 12 10 -1 15 -11 4 -14
14 -11 30 3 17 -1 27 -12 31 -9 3 -13 10 -10 15 3 6 0 17 -8 26 -9 12 -9 15 0
9 6 -4 12 -2 12 3 0 6 -7 11 -15 11 -8 0 -15 5 -15 11 0 5 4 7 10 4 6 -3 7 1
4 9 -3 9 -11 16 -16 16 -6 0 -8 9 -5 20 4 14 0 20 -11 20 -12 0 -13 3 -4 12 7
7 12 17 12 22 0 6 -5 4 -10 -4 -8 -12 -10 -11 -10 8 0 12 -5 22 -11 22 -6 0
-8 9 -4 20 4 11 3 20 -2 19 -20 -4 -24 2 -12 18 10 11 10 14 2 9 -8 -4 -14 -2
-15 6 0 7 -2 18 -2 24 -1 6 -9 22 -19 37 -9 14 -17 31 -17 37 0 5 -5 10 -11
10 -6 0 -8 7 -5 15 3 9 -1 18 -9 21 -8 4 -12 10 -9 15 3 5 0 9 -6 9 -6 0 -9 4
-6 9 4 5 2 11 -3 13 -5 1 -23 30 -40 62 -24 46 -28 61 -19 68 9 5 7 8 -7 9
-11 0 -15 3 -9 5 7 3 9 14 6 26 -3 14 -1 19 6 14 6 -4 5 5 -3 21 -8 15 -11 29
-5 31 5 2 6 10 3 18 -3 8 1 22 8 31 10 12 10 15 2 9 -12 -7 -18 16 -14 52 1 6
-4 12 -11 12 -9 0 -9 3 2 10 13 9 13 10 0 10 -13 0 -13 1 0 10 10 6 11 10 3
10 -17 0 -17 27 0 33 7 3 6 6 -5 6 -9 1 -20 6 -24 13 -4 6 -3 8 4 4 7 -4 10 1
9 14 -1 11 -5 20 -10 20 -5 0 -3 8 4 17 10 11 10 14 2 9 -12 -7 -18 5 -14 28
1 5 -3 12 -8 16 -6 3 -12 18 -13 32 -1 15 -6 24 -10 22 -7 -5 -12 18 -9 38 0
5 -5 7 -12 5 -7 -1 -11 7 -9 23 2 19 0 22 -8 10 -8 -13 -10 -12 -10 3 0 10 -4
15 -10 12 -5 -3 -10 1 -10 10 0 9 -4 13 -10 10 -5 -3 -10 1 -10 10 0 9 -4 13
-10 10 -6 -3 -10 1 -10 10 0 9 -4 13 -10 10 -6 -3 -10 -1 -10 4 0 6 -6 11 -14
11 -8 0 -16 5 -18 10 -2 6 -14 12 -27 13 -13 1 -30 12 -38 24 -12 18 -19 21
-29 12 -11 -9 -14 -9 -14 0 0 7 -6 11 -12 10 -7 -1 -31 2 -53 6 -22 5 -43 8
-47 7 -5 -1 -8 3 -8 8 0 7 -6 7 -19 0 -14 -7 -22 -7 -27 2 -5 7 -3 8 6 3 8 -5
11 -4 7 3 -4 5 -17 8 -30 4 -20 -5 -21 -4 -7 13 9 11 10 16 3 11 -8 -4 -13 -2
-13 4 0 6 -4 8 -10 5 -5 -3 -10 -1 -10 5 0 17 -26 40 -36 32 -5 -4 -2 1 6 11
7 10 9 17 4 16 -21 -4 -35 2 -29 11 3 6 1 10 -5 10 -6 0 -8 5 -4 13 6 9 4 9
-8 -1 -14 -11 -16 -10 -12 10 2 13 1 17 -2 10 -6 -13 -20 -1 -54 47 -8 12 -20
21 -27 21 -7 0 -13 5 -13 11 0 7 -11 22 -24 34 -14 13 -22 27 -18 31 4 5 -1 2
-11 -5 -15 -12 -17 -12 -11 3 5 12 0 19 -16 23 -16 4 -18 8 -8 14 11 7 11 9 0
9 -17 0 -43 26 -35 34 4 3 -3 6 -15 6 -12 0 -21 3 -21 8 5 27 -1 34 -18 21 -9
-8 -14 -9 -10 -3 7 13 -27 57 -36 47 -4 -3 -10 2 -13 11 -5 14 -9 15 -16 4 -7
-9 -8 -7 -5 9 3 14 0 21 -7 20 -6 -1 -10 3 -9 9 1 7 -5 11 -15 10 -9 0 -16 5
-14 12 1 8 -2 11 -8 7 -5 -3 -10 -1 -10 5 0 6 -4 8 -10 5 -5 -3 -10 1 -10 10
0 11 -5 15 -16 11 -8 -3 -12 -2 -9 4 3 6 -1 10 -10 10 -11 0 -15 5 -11 16 3 8
2 13 -3 9 -5 -3 -16 1 -24 9 -8 8 -17 12 -21 9 -3 -4 -6 2 -6 12 0 10 -3 15
-6 12 -4 -4 -15 2 -25 14 -12 14 -18 16 -22 7 -3 -8 -6 -6 -6 5 -1 11 -5 15
-13 11 -7 -5 -9 -2 -5 8 4 12 0 14 -16 10 -12 -3 -19 -2 -15 3 11 12 -15 34
-29 23 -8 -7 -10 -3 -7 14 2 13 2 17 -2 11 -4 -10 -9 -9 -21 2 -8 8 -19 12
-25 9 -7 -5 -8 -2 -3 6 6 10 4 12 -8 7 -11 -4 -14 -2 -10 9 3 9 -1 14 -12 14
-9 0 -13 4 -10 10 3 5 0 7 -8 4 -8 -3 -26 6 -40 20 -15 14 -31 26 -37 26 -7 0
-21 10 -32 23 -11 12 -17 17 -14 10 7 -13 -19 -12 -31 2 -4 4 -2 5 5 1 6 -4
12 -3 12 2 0 16 -13 22 -27 11 -10 -9 -13 -8 -13 5 0 10 -4 14 -10 11 -5 -3
-10 -1 -10 5 0 6 -4 8 -10 5 -5 -3 -10 2 -10 12 0 14 -2 15 -9 5 -6 -10 -10
-9 -14 7 -3 13 -11 19 -19 16 -8 -3 -25 4 -38 15 -13 11 -30 18 -37 15 -8 -2
-11 0 -8 5 3 6 -3 10 -14 10 -12 0 -21 5 -21 10 0 6 -9 10 -21 10 -11 0 -18 4
-14 9 3 5 -7 11 -22 13 -17 2 -27 8 -25 17 2 8 -3 11 -13 8 -8 -4 -15 -3 -15
1 0 4 -9 8 -20 9 -11 1 -27 9 -36 18 -9 9 -23 14 -31 11 -8 -3 -11 -1 -8 4 3
6 -3 10 -15 10 -12 0 -19 4 -16 8 2 4 -5 9 -17 9 -12 1 -23 7 -25 13 -2 5 -8
10 -13 10 -6 0 -7 -5 -3 -12 4 -7 3 -8 -4 -4 -7 4 -12 15 -13 24 0 11 -3 12
-6 5 -2 -7 -9 -13 -14 -13 -6 0 -7 5 -4 10 3 6 -3 10 -14 10 -12 0 -21 5 -21
11 0 5 -4 7 -10 4 -5 -3 -27 3 -49 15 -22 11 -46 19 -53 18 -7 -2 -12 2 -11 8
1 8 -6 10 -19 6 -12 -3 -19 -1 -15 4 5 9 -14 14 -60 17 -7 0 -13 4 -13 9 0 4
-9 8 -21 8 -13 0 -18 4 -13 13 5 8 2 8 -9 -2 -11 -9 -17 -10 -17 -2 0 6 -12
11 -26 11 -14 0 -23 4 -20 8 3 5 0 9 -7 9 -7 0 -21 4 -32 8 l-20 8 20 -17 c19
-16 18 -16 -13 -1 -18 9 -37 13 -42 10 -6 -4 -13 0 -16 9 -3 9 -12 12 -21 9
-11 -4 -14 -2 -9 5 9 15 1 15 -26 1 -12 -6 -18 -7 -14 -1 9 14 -30 22 -44 8
-8 -8 -10 -7 -5 6 5 12 1 17 -12 17 -39 1 -53 5 -53 14 0 6 -5 5 -13 -1 -8 -7
-18 -6 -31 4 -23 16 -40 19 -31 4 10 -16 -2 -12 -20 7 -14 14 -18 14 -26 2 -6
-10 -9 -10 -9 -1 0 7 -14 12 -35 12 -19 0 -35 4 -35 8 0 5 -18 8 -40 7 -22 -1
-40 1 -40 5 0 4 -13 5 -30 2 -16 -2 -30 0 -30 5 0 13 -30 12 -30 -1 0 -6 -5
-4 -10 5 -6 11 -18 15 -35 11 -14 -2 -32 1 -40 8 -13 11 -14 10 -9 -6 6 -18 6
-18 -11 -2 -13 12 -24 14 -41 7 -20 -7 -24 -5 -24 9 0 11 -3 13 -8 6 -4 -7
-18 -11 -32 -10 -14 1 -31 -3 -39 -8 -11 -9 -13 -8 -7 2 6 10 1 13 -20 10 -17
-2 -35 3 -42 12 -10 11 -12 12 -6 1 5 -11 3 -13 -9 -8 -10 4 -17 2 -17 -5 0
-7 -5 -6 -15 2 -12 10 -15 10 -15 -1 -1 -9 -5 -8 -15 5 -8 11 -15 14 -15 8 0
-7 -9 -12 -21 -12 -13 0 -18 4 -13 13 6 9 4 9 -7 1 -21 -16 -161 -17 -171 -2
-5 9 -8 8 -8 -6z m4165 -3156 c3 -5 2 -10 -4 -10 -5 0 -13 5 -16 10 -3 6 -2
10 4 10 5 0 13 -4 16 -10z m-7647 -2885 c-3 -3 -9 2 -12 12 -6 14 -5 15 5 6 7
-7 10 -15 7 -18z m1242 -1385 c0 -5 -2 -10 -4 -10 -3 0 -8 5 -11 10 -3 6 -1
10 4 10 6 0 11 -4 11 -10z"/>
<path d="M5229 8163 c-13 -16 -12 -17 4 -4 9 7 17 15 17 17 0 8 -8 3 -21 -13z"/>
<path d="M116 3368 c3 -5 10 -6 15 -3 13 9 11 12 -6 12 -8 0 -12 -4 -9 -9z"/>
<path d="M5396 262 c-3 -5 1 -9 9 -9 8 0 12 4 9 9 -3 4 -7 8 -9 8 -2 0 -6 -4
-9 -8z"/>
</g>
</svg>
